<?xml version="1.0" encoding="UTF-8"?>
<svg width="3e3" height="864.5" version="1.1" viewBox="0 0 3000 864.49955" xmlns="http://www.w3.org/2000/svg" xmlns:cc="http://creativecommons.org/ns#" xmlns:dc="http://purl.org/dc/elements/1.1/" xmlns:rdf="http://www.w3.org/1999/02/22-rdf-syntax-ns#">
<title>The Angry Birds Movie</title>
<metadata>
<rdf:RDF>
<cc:Work rdf:about="">
<dc:format>image/svg+xml</dc:format>
<dc:type rdf:resource="http://purl.org/dc/dcmitype/StillImage"/>
<dc:title>The Angry Birds Movie</dc:title>
<dc:subject>
<rdf:Bag>
<rdf:li>The Angry Birds Movie</rdf:li>
</rdf:Bag>
</dc:subject>
</cc:Work>
</rdf:RDF>
</metadata>
<g transform="translate(684.82 -7.684)">
<g fill-rule="evenodd">
<path d="m-12.678 27.685c-9.0445 0.02101-20.094 0.28492-30.968 0.77956l-39.538 1.7962 0.04108 68.14 0.04552 68.135 38.749 5e-3c27.248 2e-3 41.756-1.2489 48.87-4.2214 9.6914-4.0493 10.12-4.8644 10.12-19.279 0-13.246-0.61172-14.781-5.1058-12.796-2.8082 1.2398-15.281 2.8357-27.717 3.5422l-22.611 1.281v-13.129-13.134l17.369 0.16408c20.532 0.1935 26.395-3.6247 26.395-17.182v-9.8515h-21.882-21.882v-10.303c0-13.008 3.6215-14.42 28.009-10.914 13.549 1.9482 19.428 1.8271 19.931-0.41029 0.39243-1.7456 2.6846-9.2718 5.0921-16.726l4.3764-13.554-10.362-1.6822c-2.8492-0.46236-9.888-0.6823-18.933-0.66104zm-133.15 3.027v25.611 25.611h-18.964-18.964v-25.529l5e-3 -25.529-22.616 0.61543c-12.438 0.33809-22.4 1.651-22.137 2.9176 2.3344 11.256 6.8903 118.57 5.4432 128.22l-1.8736 12.482 19.863-1.7688c10.922-0.97438 20.371-2.2129 21.002-2.7535 0.63084-0.54064 0.87272-12.371 0.53794-26.29-0.4397-18.283 0.45939-25.986 3.2322-27.745 2.1109-1.3386 11.543-2.4509 20.961-2.4754l17.123-0.0455-2.0286 26.988-2.0332 26.988 22.94-0.93454 22.94-0.93-2.5301-26.787c-1.391-14.732-1.8627-45.201-1.0485-67.711l1.4816-40.929h-21.668-21.663zm-216.5 0.16409 1.705 12.409c0.93548 6.825 4.3016 17.506 7.4809 23.737l5.7805 11.333 13.444-2.8675c7.3945-1.5771 14.337-1.9769 15.427-0.88896 1.0902 1.0879 1.9831 29.529 1.9831 63.203 0 59.788 0.13701 61.192 5.8352 59.706 3.2094-0.83701 14.185-3.8799 24.394-6.7607l18.563-5.238-1.8281-16.047c-1.0061-8.8258-2.6749-34.908-3.7063-57.96l-1.8737-41.913 14.625 2.0104 14.625 2.015 3.5467-18.021c1.9496-9.9093 4.1249-19.524 4.8323-21.367 0.94395-2.4599-15.489-3.3507-61.771-3.3507h-63.061zm1709.2 597.68c-0.1372-7e-3 -0.2763 0.0163-0.4103 0.0684-11.089 4.2551-52.845 14.237-72.156 17.25l-22.662 3.5376 6.6148 9.2816c3.6381 5.1058 10.225 11.416 14.638 14.023 10.343 6.1109 10.143 9.3188-0.7294 11.707-7.4718 1.6411-8.7615 3.277-8.7848 11.174-0.1109 35.508-11.67 146.64-15.978 153.61-0.7163 1.1591 13.565 1.9757 31.734 1.8144l33.033-0.29176 1.8828-30.416c2.1516-34.755 7.2547-67.324 10.549-67.324 1.2314 0 3.9363 6.2364 6.013 13.859 5.3365 19.587 25.189 62.041 32.846 70.241 7.7079 8.2551 20.18 15.099 27.517 15.099 4.0731 0 6.2265-3.9093 9.2041-16.717 4.2127-18.12 17.072-56.487 25.201-75.188 4.7297-10.881 5.2388-11.232 7.5083-5.1605 3.0466 8.1504 8.4975 60.318 8.4975 81.328v15.737h33.867 33.867l-1.9102-7.6222c-6.9525-27.701-19.142-144.65-19.142-183.65v-17.962l-23.628-1.9694c-12.995-1.0837-30.153-3.3723-38.13-5.083-7.9769-1.7108-14.983-2.6319-15.568-2.0469-0.585 0.58501-3.8078 14.532-7.1618 30.99-3.3541 16.459-9.4945 40.67-13.644 53.807-6.5914 20.865-8.0164 23.243-11.265 18.8-4.2294-5.7841-19.476-60.664-25.096-90.332-2.2373-11.812-4.6464-18.461-6.706-18.568zm765.85 5.6118c-2.7677 0.10386-8.209 1.3799-13.991 3.3735-18.873 6.5076-64.758 13.291-90.049 13.312l-20.596 0.0187 2.5801 22.611c2.8462 24.943 1.1659 156.86-2.097 164.63-1.8693 4.4602 2.469 4.905 49.691 5.0922 76.556 0.30359 83.525-2.5121 85.331-34.469 0.6445-11.408 0.4179-20.738-0.506-20.738-0.924 0-8.3422 2.6258-16.484 5.8352-10.127 3.9915-21.685 5.8352-36.58 5.8352h-21.773l-0.042-10.941c-0.023-6.0176-0.833-13.895-1.8007-17.506-1.6918-6.3125-1.0354-6.5646 17.109-6.5646 33.29 0 43.878-7.725 43.878-32.007 0-6.5652-0.5429-12.478-1.2081-13.143-0.665-0.66507-6.4227-6.7e-4 -12.796 1.477-14.075 3.2632-39.468 3.5609-44.252 0.51971-1.917-1.2187-3.0021-4.8082-2.4116-7.9778 0.5908-3.1696 1.1767-9.3728 1.2994-13.786 0.2194-7.8714 0.5688-8.0276 18.458-8.0417 38.78-0.0345 50.424-8.9924 50.023-38.481-0.126-9.3403-1.0221-17.78-1.9922-18.75-0.2425-0.24252-0.8689-0.33551-1.7916-0.30089zm-476.24 12.076c-4.5048 0.15498-14.676 0.80717-26.272 1.7095-22.747 1.7702-31.015 3.7679-43.34 10.476-31.566 17.181-44.797 44.083-45.072 91.64-0.1613 27.844 0.5373 31.997 7.7043 45.583 10.412 19.737 30.475 37.072 49.718 42.962 20.888 6.393 51.664 4.7485 71.436-3.8202 17.815-7.7209 36.536-26.756 45.524-46.285 9.1013-19.776 8.7421-68.433-0.661-89.498-13.7-30.689-39.574-46.683-58.845-36.37-6.7688 3.6227-6.8918 2.9632-1.3813-7.6587 2.3467-4.523 3.9878-8.4475 3.647-8.7209-0.084-0.0684-0.9556-0.0698-2.4571-0.0187zm254.84 6.4643c-4.4436-0.0397-14.836 0.16176-26.874 0.54249-33.628 1.0638-31.835-0.42716-39.178 32.632-8.4315 37.959-24.918 87.528-29.112 87.528-2.1432 0-5.3568-5.5799-7.1391-12.4-6.031-23.078-14.39-61.895-17.866-82.97l-3.46-20.97-31.127-0.91174c-17.122-0.50188-31.352-0.91183-31.62-0.91176-0.2675 2e-5 4.0893 13.786 9.6827 30.635 13.524 40.738 36.028 128.82 36.028 141.02 0 5.348 0.6874 10.411 1.5317 11.256 0.8442 0.84428 19.263 1.3927 40.929 1.2172l39.392-0.31912 3.1319-11.67c6.3023-23.471 34.07-108.84 45.861-141 6.6643-18.177 12.119-33.276 12.122-33.553 1e-3 -0.0691-0.8209-0.10993-2.3021-0.123zm18.253 1.0804 0.044 85.34c0.023 46.937-0.9678 88.951-2.2018 93.364l-2.2431 8.0234h29.96 29.965v-83.881c0-46.135 0.9518-88.148 2.1151-93.364l2.1154-9.4822h-29.878-29.878zm-297.37 46.682c12.343 0 19.994 5.4812 27.216 19.502 8.0375 15.606 0.2724 57.836-12.245 66.604-9.6972 6.7922-28.997 5.6013-36.078-2.2247-17.861-19.741-16.494-65.932 2.3432-79.126 3.7359-2.6168 12.18-4.7548 18.764-4.7548z" fill="#a83635"/>
<path d="m2240.6 101.92-9.373 6.0905c-5.1548 3.3509-32.897 20.19-61.653 37.418-58.146 34.836-81.015 53.813-96.956 80.462-5.9099 9.8801-11.203 18.532-11.762 19.224-0.5585 0.69266-5.2622-2.6826-10.453-7.4992-38.738-35.943-113.92-47.153-193.25-28.82-16.167 3.7361-78.333 22.024-89.429 26.309-3.8627 1.4916-5.2218-0.63294-6.8746-10.74-9.5469-58.381-68.095-93.756-147.32-89.005-15.245 0.91408-37.564 4.4317-49.599 7.8137-21.694 6.0961-80.022 33.025-104.77 48.373l-12.869 7.9778 1.9193-29.29 1.9238-29.29-12.66-1.901c-20.912-3.136-49.617 2.691-60.996 12.382-4.5538 3.878-5.7357 3.7834-10.914-0.90264-3.3369-3.0199-12.203-5.8708-20.847-6.7014l-15.039-1.4451 1.9147 33.238c2.7008 46.894 7.1076 183.17 9.4458 292.17l1.9876 92.634h8.1283c4.4711 0 10.212-2.0834 12.76-4.6317 4.2326-4.2325 5.3242-3.9019 12.61 3.8658 5.9865 6.3829 12.627 9.4162 26.628 12.158 13.151 2.5756 19.221 2.7284 20.583 0.52426 1.0625-1.7192 3.5349-39.568 5.4978-84.109 7.0666-160.35 9.6452-193.31 15.103-193.31 3.1666 0 6.1059 4.0667 8.3471 11.547 4.396 14.673 6.7329 15.978 15.814 8.8349 4.0522-3.1875 7.9619-5.7942 8.6844-5.7942 3.9909 0 23.7 198.24 25.889 260.4l0.5927 16.776h10.549c19.437 0 38.1-12.851 45.679-31.455 0.1844-0.4513 4.3675 1.4935 9.2955 4.3217 4.9277 2.8282 9.6846 4.4156 10.572 3.5285 0.8872-0.88717 0.6388-20.989-0.5518-44.671-1.1899-23.682-1.719-43.508-1.1715-44.056 0.5476-0.5476 12.372 6.3522 26.272 15.331 30.849 19.927 75.875 41.741 109.9 53.242 30.243 10.223 32.821 9.4922 58.525-16.626l16.184-16.448-9.6464-4.2305-9.6416-4.2305 8.9487-3.8248c8.4956-3.6317 17.998-12.177 15.536-13.973-0.6297-0.45947-14.273-6.5126-30.32-13.448-54.968-23.758-115.51-57.186-115.11-63.563 0.077-1.2359 7.2247-7.3222 15.882-13.526 15.736-11.275 51.297-46.44 60.882-60.203 5.0236-7.2137 5.1265-7.2297 9.5097-1.4588 2.4375 3.2094 5.5827 7.8046 6.9885 10.212 2.1098 3.6123 3.5938 3.7396 8.5113 0.7294 8.2876-5.0735 8.958-4.7336 8.958 4.5496 0 4.5074 1.8696 10.744 4.1574 13.859 4.0429 5.5043 4.4136 5.5146 13.138 0.38751l8.9762-5.2791 3.0999 8.1602c3.8361 10.089 20.878 95.893 27.891 140.44 5.9867 38.026 6.7861 36.369-20.063 41.722-9.2271 1.8396-16.776 4.3817-16.776 5.6529 0 4.5426 19.352 27.59 25.917 30.863 4.0856 2.037 5.4545 4.0985 3.5146 5.2973-1.7466 1.0795-3.1727 6.6276-3.1727 12.331v10.371l13.654-2.0469c58.164-8.7222 139.11-53.639 193.11-107.16 35.011-34.698 60.766-75.322 70.342-110.96l3.711-13.813 10.576 8.3699c5.8161 4.6053 18.695 13.135 28.62 18.951 22.663 13.28 35.733 24.202 38.886 32.495 3.9185 10.306-2.6578 29.375-14.934 43.322-18.625 21.159-36.383 30.575-83.699 44.38-7.2027 2.1014 1.8883 12.515 12.696 14.542 9.5065 1.7834 9.9583 2.324 5.7988 6.9202-2.4814 2.742-4.5086 6.3169-4.5086 7.9459 0 4.5624 26.628 31.282 39.985 40.122l11.926 7.8912 21.454-10.791c55.306-27.827 99.219-64.945 113.86-96.24 7.2632-15.521 8.804-22.606 9.0082-41.471 0.37-34.234-7.8414-50.125-37.619-72.813-30.254-23.05-46.893-41.394-49.33-54.386-2.6144-13.936 5.3889-29.732 21.057-41.567 13.26-10.015 53-26.308 71.308-29.235 6.3037-1.008 12.08-2.8365 12.838-4.0618 4.0856-6.6106-26.138-96.204-32.454-96.204-0.5324 0-5.9318 2.5049-11.999 5.5663-6.067 3.0613-13.985 6.4311-17.597 7.49-6.2318 1.827-6.0838 1.1525 2.8539-13.225 9.6026-15.447 11.538-27.58 7.107-44.544l-2.1562-8.2377zm-1080.1 19.945c-39.861 9e-3 -84.007 6.7988-126.06 20.369-31.178 10.06-94.664 34.996-134.21 52.713-17.652 7.9081-36.361 16.071-41.576 18.139-10.661 4.2291-11.189 5.901-5.3839 17.059 7.421 14.263 17.829 21.456 34.328 23.728 15.207 2.0949 15.368 2.2157 7.335 5.5435-4.5173 1.8715-11.41 3.4054-15.317 3.4054-3.9072 0-7.1025 1.1269-7.1025 2.5028 0 4.4844 50.757 51.315 62.104 57.299 10.578 5.5788 11.422 5.613 19.812 0.79777 6.4768-3.7171 9.0722-4.0947 9.9426-1.4497 1.8512 5.6252 9.0688 44.989 20.451 111.53 5.7641 33.698 14.298 82.888 18.964 109.31 4.6663 26.422 8.0764 48.448 7.5813 48.943-0.4952 0.49513-9.5052 1.703-20.022 2.6851-26.662 2.4898-27.575 3.372-21.098 20.428 6.5255 17.182 21.111 32.486 33.284 34.92 11.804 2.3608 11.42 5.667-1.1852 10.225-5.6164 2.0309-10.183 4.4116-10.148 5.2927 0.18883 4.6628 11.408 15.014 20.268 18.7 10.539 4.3848 15.13 4.1526 54.596-2.7945 102.72-18.081 213.32-90.691 242.74-159.35 14.744-34.418 13.926-80.173-1.7688-98.825-9.5623-11.364-31.117-22.176-56.811-28.492l-20.46-5.0283 16.179-13.822c35.51-30.338 65.956-76.987 72.065-110.42 8.5288-46.673-16.993-100.69-58.161-123.1-24.901-13.553-60.477-20.324-100.34-20.314zm-1539.2 33.005c-1.5326 0-16.382 5.3929-33.001 11.985-99.254 39.371-222.71 78.461-247.81 78.461-8.7675 0-6.6706 7.2222 6.9521 23.961 9.1164 11.202 16.712 17.092 27.736 21.513 14.995 6.0133 15.09 6.1293 7.7317 9.4822-4.0975 1.867-11.331 3.3963-16.07 3.3963s-8.6115 1.5128-8.6115 3.3644c0 5.7898 19.465 38.355 30.817 51.555 8.7443 10.167 12.184 12.274 17.734 10.882 5.2971-1.3295 6.8741-0.53427 6.8473 3.4373-0.0336 4.9669-9.86 163.16-18.805 302.76-2.365 36.908-5.0718 75.852-6.013 86.544l-1.7095 19.439 19.844-4.4858c21.28-4.8128 44.083-15.011 50.292-22.493 5.5688-6.7099 8.9443-5.6457 8.9443 2.8219 0 7 0.62794 7.3076 10.941 5.3794 26.172-4.8933 23.522 2.1856 25.397-67.894 0.91816-34.311 2.4546-65.5 3.41-69.307 1.3708-5.4616 5.2072-7.8793 18.194-11.465 9.0514-2.4993 24.991-7.0051 35.422-10.016 10.43-3.0105 22.885-5.8852 27.676-6.3868l8.7118-0.91177 12.61 49.599c21.468 84.439 23.057 88.987 31.095 88.987 3.8424 0 10.876-3.2741 15.632-7.2758l8.648-7.2758 13.936 6.1634c11.5 5.087 17.931 5.9339 36.803 4.8414 12.578-0.72809 23.655-2.1098 24.613-3.068 0.95822-0.95826-2.2434-17.255-7.1117-36.219-12.635-49.219-27.545-117.8-25.958-119.38 0.74203-0.74206 5.5332-2.549 10.649-4.0163 11.138-3.1943 10.374-5.02 14.656 34.943 6.031 56.285 5.8176 55.435 13.781 55.435 9.5246 0 23.425-7.4606 27.261-14.629 3.0842-5.7628 3.1876-5.7579 11.752 0.57442 6.9121 5.1103 12.474 6.3535 27.827 6.209 10.555-0.0992 20.253-1.3271 21.549-2.7307 1.2964-1.4036 0.64255-15.026-1.4542-30.27-4.561-33.16-14.148-154.47-12.35-156.27 2.0535-2.0535 59.964 78.683 92.885 129.5 34.196 52.783 34.075 52.701 60.741 41.229 11.064-4.7595 15.486-5.3493 21.882-2.9176 4.409 1.6763 8.6557 3.0498 9.4321 3.0498 0.77639 0 1.0175-20.353 0.53794-45.228-0.47966-24.875-0.097098-45.225 0.8525-45.223 0.94951 2e-3 3.3939 5.5845 5.4295 12.404 21.074 70.606 99.278 103.39 182.91 76.688 12.607-4.0262 23.812-7.3368 24.895-7.3578 1.0831-0.021 2.899 11.887 4.039 26.459 1.9666 25.14 2.3882 26.408 8.2422 24.777 3.3933-0.94526 8.964-2.4684 12.377-3.3826 4.2862-1.1481 9.2493 0.9819 16.047 6.8883 10.396 9.0331 17.589 13.344 30.43 18.226l7.8502 2.9814-2.17-115.65c-2.3243-123.96-2.652-120.65 12.012-120.76 7.0908-0.0511 7.7639 3.3193 12.787 64.142 5.0346 60.957 5.1031 61.27 13.43 61.27 3.9863 0 10.531-3.2823 14.542-7.294 9.0677-9.0677 9.9472-9.0677 9.9472 0 0 12.143 9.0331 18.219 30.507 20.519 10.646 1.14 19.839 1.5852 20.432 0.98925 0.59353-0.59589-1.2386-20.779-4.071-44.849s-4.7242-44.276-4.2077-44.899c1.5726-1.899 97.276 49.912 171.28 92.725 14.168 8.1962 26.492 14.903 27.389 14.903 0.8971 0 0.71381-10.175-0.41029-22.611-1.4862-16.442-4.2703-26.726-10.203-37.687l-8.1602-15.076 12.313-3.1c6.7703-1.7048 14.013-5.1518 16.097-7.6633 3.2042-3.8608 2.7019-5.3291-3.2413-9.5005-20.338-14.274-96.66-63.765-110.22-71.468l-15.664-8.8987 12.746-10.362c7.0095-5.6991 23.39-20.635 36.402-33.192l23.655-22.83 20.565 24.184c11.31 13.302 37.779 41.075 58.822 61.717l38.262 37.528-10.476 39.789c-5.7622 21.882-16.351 60.68-23.528 86.22-7.1769 25.539-12.452 47.995-11.721 49.9 0.73099 1.9048 8.9946 4.9595 18.363 6.7926 18.051 3.5319 34.465 0.97793 46.112-7.1801 7.9668-5.5801 8.9426-5.1884 9.6965 3.9206 0.36258 4.3809 2.9873 10.295 5.8352 13.143 4.9591 4.959 5.8398 3.3582 20.811-37.87 46.926-129.23 119.85-359.94 119.85-379.18 0-8.129-11.804-26.769-22.972-36.283-13.765-11.727-42.21-29.222-48.464-29.805-3.11-0.2902-7.0683 7.0316-12.997 24.034-9.9404 28.507-14.766 35.395-14.766 21.066 0-7.0595-2.6465-12.275-9.9199-19.548-12.869-12.869-19.257-13.014-19.265-0.43764-0.014 23.738-22.715 160.47-26.277 158.27-2.6488-1.637-53.333-85.621-67.342-111.58-5.4112-10.029-10.721-18.235-11.798-18.235-2.5402 0-8.3608 16.726-8.3608 24.02 0 6.2414-5.6085 5.718-9.1358-0.8525-1.2409-2.3115-3.0519-11.611-4.0254-20.665-5.6706-52.742-63.512-88.192-135.64-83.125-45.752 3.2144-80.711 16.024-161.72 59.259-29.001 15.478-53.162 28.475-53.693 28.88-1.7581 1.3396 5.967 14.183 15.997 26.596 5.436 6.7275 14.451 13.886 20.036 15.906 12.786 4.6234 12.777 7.0076-0.0546 11.648-5.6164 2.0309-10.212 4.633-10.212 5.7805 0 3.4526 22.393 20.081 27.043 20.081 3.8636 0 7.9688 11.29 7.9687 21.919 0 2.2344-10.625 6.2472-26.988 10.189-30.042 7.2365-109.99 32.626-130.47 41.435l-13.225 5.6939 6.8837 5.6027c3.7884 3.0832 8.7118 5.6073 10.941 5.6073 5.3352 0 5.1435 2.9364-0.46042 7.0342-3.9718 2.9043-3.2375 6.0974 6.0905 26.578 5.8315 12.803 11.07 23.756 11.643 24.335 0.57347 0.57881 9.2232-1.7117 19.22-5.0876 9.9965-3.3759 18.71-5.6017 19.366-4.9463 0.65543 0.65543 2.5461 11.312 4.1986 23.678 3.5136 26.294 4.972 24.455-27.704 34.911-40.889 13.084-63.77 7.825-76.387-17.556-4.6387-9.3318-5.7546-17.399-5.6529-40.806 0.1984-45.611 13.457-80.788 41.622-110.41 14.677-15.436 30.4-25.908 64.593-43.026l29.222-14.629-0.032-29.755c-0.0187-16.365-0.85475-34.732-1.86-40.815l-1.828-11.06-12.728 1.9101c-7.0005 1.0497-12.728 1.1327-12.728 0.18696 0-0.94575 2.6189-6.0198 5.8215-11.274 3.2034-5.254 5.8306-14.416 5.8352-20.364l0.014-10.818-28.447 10.248c-42.144 15.182-67.041 28.367-93.418 49.472-42.103 33.687-70.317 79.489-84.761 137.6l-7.8183 31.46-0.76133-121.81c-0.41881-66.996-1.1787-121.81-1.6867-121.81-2.1071 0-39.221 15.637-49.262 20.756-15.517 7.911-31.442 22.674-31.442 29.144 0 6.8713-0.46117 6.8626-13.827-0.30088-16.457-8.8203-17.726-8.0213-15.021 9.4822 1.3017 8.4246 6.4108 50.766 11.351 94.093 4.9406 43.327 9.6578 82.714 10.481 87.528 1.4459 8.4595 1.3377 8.5573-3.2185 2.9176-5.0306-6.2269-115.33-173.45-126.54-191.83-3.6671-6.0176-7.8937-10.941-9.3911-10.941-4.5275 0-14.285 18.419-14.296 26.988-7e-3 4.4129-1.322 8.0234-2.9267 8.0234-1.6047 0-2.9176-1.225-2.9176-2.7216 0-6.0866-13.185-6.1041-39.383-0.0502-25.289 5.8438-27.542 6.925-26.295 12.605 1.8874 8.5951 24.471 170.24 25.474 182.34 0.77231 9.3096 0.13935 10.02-12.199 13.731-7.1571 2.1524-13.167 3.6411-13.357 3.3096-0.19022-0.33142-1.7716-9.7922-3.5148-21.025-1.7433-11.233-9.7038-57.842-17.688-103.58-7.9842-45.734-16.684-98.907-19.334-118.16-6.6147-48.078-7.5877-53.976-8.8942-53.976-0.62519 0-4.6549 1.3363-8.958 2.9723l-7.8274 2.9769 1.9785-13.188c1.1716-7.8124 0.84403-13.184-0.80689-13.184zm1995.6 93.477c3.5588 0.0187 6.8104 0.34939 9.5051 1.0257 11.142 2.7964 17.214 16.619 13.448 30.603-5.1511 19.13-23.542 43.263-45.022 59.077-17.489 12.875-19.256 11.675-19.256-13.065 0-11.793-0.8325-31.255-1.8464-43.249l-1.8416-21.805 11.205-5.3201c9.665-4.5864 23.132-7.3252 33.808-7.2667zm-467.1 14.588c10.264-0.17552 12.836 1.4148 19.557 7.0706 8.3805 7.0517 9.4127 9.579 9.3865 22.981-0.054 28.755-19.513 56.452-59.907 85.276-9.9676 7.1127-19.371 12.933-20.897 12.933-1.5266 0-4.3703-20.679-6.3184-45.952-1.9482-25.274-4.2584-50.874-5.1332-56.889-1.5628-10.744-1.3403-11.043 12.528-17.073 8.6487-3.7602 23.176-6.7282 37.519-7.6678 5.5696-0.36489 9.8447-0.62075 13.266-0.67927zm-694.9 34.756c6.7109 0.0371 11.886 1.2139 14.315 3.6424 14.713 14.713-18.673 64.016-59.022 87.159-8.1366 4.6669-16.259 8.4972-18.048 8.5112-4.864 0.0408-7.4738-73.162-2.7854-78.128 1.9497-2.0652 13.102-7.6452 24.786-12.4 14.115-5.7442 29.57-8.8464 40.755-8.7847zm1473.8 17.665c20.29-0.47034 35.992 5.7397 43.76 18.039 5.2732 8.3498 5.9078 12.821 4.6637 33.001-2.8931 46.92-26.901 91.372-66.066 122.32-14.147 11.18-17.486 12.469-17.547 6.7834-0.023-2.0058-1.8913-26.623-4.153-54.705-2.2617-28.082-5.0253-65.614-6.1408-83.403l-2.0241-32.34 17.31-4.8596c10.805-3.0317 20.974-4.6231 30.197-4.8369zm-2392.8 29.158c1.028 0 8.7228 28.556 17.1 63.458 22.787 94.936 23.826 100.21 20.013 101.41-1.8192 0.57409-13.152 4.2885-25.187 8.2559-12.035 3.9674-24.392 8.2178-27.457 9.4412-5.3509 2.1353-5.4959 0.94727-3.6288-29.632 1.7285-28.309 9.696-100.9 15.267-139.08 1.1122-7.6222 2.8652-13.859 3.8932-13.859zm1621.2 134.45c21.952-0.39532 36.145 8.5817 32.23 24.18-2.5951 10.34-20.265 29.611-35.125 38.312-6.553 3.8369-19.353 10.261-28.442 14.278l-16.526 7.3032-1.9967-25.379c-3.9077-49.651-5.5083-44.466 16.088-52.088 12.215-4.3115 23.793-6.426 33.771-6.6057z"/>
</g>
</g>
</svg>
